# xmcd
#
# Track frame offsets:
#	150
#	15299
#	32361
#	45477
#	58446
#
# Disc length: 1035 seconds
#
# Revision: 1
# Processed by: cddbd v1.5.1PL0 Copyright (c) Steve Scherf et al.
# Submitted via: CDex 1.50Beta5
#
DISCID=32040905
DTITLE=Various Artist - Best Sound COLLECTION70'sC
DYEAR=1900
DGENRE=Folk
TTITLE0=CANDIES/春一番
TTITLE1=大田　裕美/木綿のハンカチーフ
TTITLE2=森田　公一とトップギャラン/青春時代
TTITLE3=よしだ　たくろう/旅の宿
TTITLE4=山口　百恵/いい日旅立ち
EXTD=
EXTT0=
EXTT1=
EXTT2=
EXTT3=
EXTT4=
PLAYORDER=
